<?xml version="1.0" standalone="no"?>
<!DOCTYPE svg PUBLIC "-//W3C//DTD SVG 1.1//EN" "http://www.w3.org/Graphics/SVG/1.1/DTD/svg11.dtd" >
<svg xmlns="http://www.w3.org/2000/svg">
<metadata>Generated by IcoMoon</metadata>
<defs>
<font id="icomoon" horiz-adv-x="1024">
<font-face units-per-em="1024" ascent="960" descent="-64" />
<missing-glyph horiz-adv-x="1024" />
<glyph unicode="&#x20;" horiz-adv-x="512" d="" />
<glyph unicode="&#xe900;" glyph-name="%电量" d="M144.7 275.006h535.58v325.756h-535.58v-325.756zM918.374 519.319v81.443c0 44.791-36.65 81.438-81.438 81.438h-692.236c-44.791 0-81.438-36.647-81.438-81.438v-325.756c0-44.791 36.647-81.443 81.438-81.443h692.236c44.788 0 81.438 36.651 81.438 81.443v81.438c22.396 0 40.719 18.322 40.719 40.719v81.437c0 22.396-18.323 40.719-40.719 40.719v0zM877.655 478.6v-203.594c0-22.395-18.323-40.718-40.719-40.718h-692.236c-22.396 0-40.719 18.323-40.719 40.718v325.756c0 22.396 18.323 40.719 40.719 40.719h692.236c22.396 0 40.719-18.323 40.719-40.719v-122.162z" />
<glyph unicode="&#xe901;" glyph-name="抽奖" d="M896.943 725.33h-207.963c9.418 16.249 14.816 35.097 14.816 55.189 0 60.855-49.514 110.368-110.373 110.368-32.934 0-62.535-14.504-82.774-37.455-20.243 22.95-49.846 37.455-82.778 37.455-60.86 0-110.374-49.513-110.374-110.368 0-20.092 5.402-38.941 14.817-55.189h-207.964c-30.478 0-55.184-24.705-55.184-55.185v-55.184c0-30.478 24.706-55.184 55.184-55.184v-496.668c0-30.479 24.711-55.185 55.185-55.185h662.225c30.478 0 55.184 24.706 55.184 55.185v496.668c30.479 0 55.185 24.706 55.185 55.184v55.184c-0.001 30.48-24.707 55.185-55.186 55.185v0zM593.424 835.703c30.432 0 55.188-24.757 55.188-55.184 0-30.433-24.757-55.189-55.188-55.189-30.428 0-55.185 24.757-55.185 55.189 0 30.427 24.757 55.184 55.185 55.184v0zM372.687 780.519c0 30.427 24.751 55.184 55.184 55.184 30.427 0 55.184-24.757 55.184-55.184 0-30.433-24.757-55.189-55.184-55.189-30.433 0-55.184 24.756-55.184 55.189v0zM841.76 366.629h-303.521v193.148h303.521v-193.148zM483.055 366.629h-303.52v193.148h303.521v-193.148h-0.001zM179.535 63.109v248.331h303.521v-248.331h-303.521zM538.239 63.109v248.331h303.521v-248.331h-303.521zM896.943 614.961v0h-772.593v55.184h772.593v-55.184z" />
<glyph unicode="&#xe902;" glyph-name="点赞" d="M889.6 563.2h-281.6c25.6 134.4 76.8 300.8-32 352-115.2 51.2-121.6-19.2-134.4-134.4-12.8-121.6-192-249.6-192-249.6v-563.2h608c83.2 38.4 134.4 377.6 160 499.2s-128 96-128 96zM0 531.2h179.2v-569.6h-179.2v569.6z" />
<glyph unicode="&#xe903;" glyph-name="兑换-(1)" horiz-adv-x="1025" d="M746.074 327.245c-13.468 0-24.358-10.293-24.358-22.966 0-51.645-18.591-63.973-22.269-66.066h-98.67c-7.409 0-11.385 1.046-13.175 1.743v136.103h82.966c28.633 0 51.896 21.972 51.896 49.013v108.716c0 26.99-23.264 49.008-51.896 49.008h-47.474l52.195 76.551c7.257 10.691 4.029 24.855-7.357 31.719-11.234 6.907-26.293 3.778-33.604-6.865l-69.143-101.407h-77.996l-109.758 111.103c-9.147 9.298-24.557 9.79-34.346 1.146-9.843-8.654-10.392-23.168-1.245-32.462l78.791-79.785h-60.744c-28.684 0-51.996-22.018-51.996-49.008v-108.716c0-27.041 23.311-49.013 51.996-49.013h42.001c-9.246-38.919-38.025-114.278-124.77-139.531-12.825-3.778-19.983-16.607-16.054-28.737 3.229-9.837 12.873-16.201 23.264-16.201 2.386 0 4.82 0.346 7.205 1.042 118.903 34.645 151.465 138.786 160.063 183.425h87.341v-135.156c-0.796-8.602 1.638-20.532 10.637-30.475 10.936-12.030 28.135-18.147 51.2-18.147h102.249l4.228 0.398c6.51 1.046 63.13 13.322 63.13 111.599-0.001 12.676-10.837 22.967-24.311 22.967zM359.888 421.991c-1.842 0-3.281 1.34-3.281 3.081v108.716c0 1.685 1.44 3.030 3.281 3.030h212.655c1.837-0.35 3.579-0.695 5.415-0.695 1.989 0 4.029 0.25 5.964 0.695h86.646c1.79 0 3.229-1.345 3.229-3.030v-108.716c0-1.743-1.44-3.081-3.229-3.081h-310.68zM515.226 954.772c-280.756 0-509.167-228.416-509.167-509.12 0-280.757 228.411-509.12 509.167-509.12 280.709 0 509.12 228.363 509.12 509.12 0 280.704-228.411 509.12-509.12 509.12zM515.226-10.529c-251.527 0-456.177 204.654-456.177 456.182s204.65 456.129 456.177 456.129 456.129-204.602 456.129-456.13-204.602-456.181-456.129-456.181zM746.074 327.245c-13.468 0-24.358-10.293-24.358-22.966 0-51.645-18.591-63.973-22.269-66.066h-98.67c-7.409 0-11.385 1.046-13.175 1.743v136.103h82.966c28.633 0 51.896 21.972 51.896 49.013v108.716c0 26.99-23.264 49.008-51.896 49.008h-47.474l52.195 76.551c7.257 10.691 4.029 24.855-7.357 31.719-11.234 6.907-26.293 3.778-33.604-6.865l-69.143-101.407h-77.996l-109.758 111.103c-9.147 9.298-24.557 9.79-34.346 1.146-9.843-8.654-10.392-23.168-1.245-32.462l78.791-79.785h-60.744c-28.684 0-51.996-22.018-51.996-49.008v-108.716c0-27.041 23.311-49.013 51.996-49.013h42.001c-9.246-38.919-38.025-114.278-124.77-139.531-12.825-3.778-19.983-16.607-16.054-28.737 3.229-9.837 12.873-16.201 23.264-16.201 2.386 0 4.82 0.346 7.205 1.042 118.903 34.645 151.465 138.786 160.063 183.425h87.341v-135.156c-0.796-8.602 1.638-20.532 10.637-30.475 10.936-12.030 28.135-18.147 51.2-18.147h102.249l4.228 0.398c6.51 1.046 63.13 13.322 63.13 111.599-0.001 12.676-10.837 22.967-24.311 22.967zM359.888 421.991c-1.842 0-3.281 1.34-3.281 3.081v108.716c0 1.685 1.44 3.030 3.281 3.030h212.655c1.837-0.35 3.579-0.695 5.415-0.695 1.989 0 4.029 0.25 5.964 0.695h86.646c1.79 0 3.229-1.345 3.229-3.030v-108.716c0-1.743-1.44-3.081-3.229-3.081h-310.68zM515.226 954.772c-280.756 0-509.167-228.416-509.167-509.12 0-280.757 228.411-509.12 509.167-509.12 280.709 0 509.12 228.363 509.12 509.12 0 280.704-228.411 509.12-509.12 509.12zM515.226-10.529c-251.527 0-456.177 204.654-456.177 456.182s204.65 456.129 456.177 456.129 456.129-204.602 456.129-456.13-204.602-456.181-456.129-456.181z" />
<glyph unicode="&#xe904;" glyph-name="兑换" d="M431.633 595.911l-216.72 219.609h132.56l171.57-165.429 159.65 165.429h144.48l-222.499-222.499v-9.030h291.488v-93.189h-325.079v-147.369h222.499v11.92l-87.41 87.41h111.249l138.339-141.59-135.45-150.62h-111.249l87.41 87.41 2.89 18.060h-225.75v-177.71h-114.5v177.71h-318.217v87.41h318.939v147.369h-219.609v-11.92l84.159-84.159h-108.36l-138.339 141.59 141.59 141.59h96.44l-75.129-81.27v-15.17h195.77v14.448z" />
<glyph unicode="&#xe905;" glyph-name="个人" d="M875.77 94.060l0.501 0.205c-0.364 1.047-0.819 1.979-1.184 3.026-0.341 0.979-0.637 1.911-1.092 2.845-37.957 108.498-109.341 186.868-216.429 228.966 83.081 49.698 138.878 140.242 138.878 244.054 0.001 157.058-127.385 284.444-284.444 284.444-157.081 0-284.444-127.386-284.444-284.444 0-103.812 55.797-194.355 138.877-244.054-104.106-40.938-177.038-124.791-214.88-229.354-0.273-0.591-0.479-1.183-0.706-1.797-0.637-1.753-1.456-3.414-2.070-5.211l0.955-0.273c-0.272-1.593-0.955-3.072-0.955-4.756 0-15.997 7.971-28.968 23.968-28.968 12.47 0 22.869 7.987 26.965 19.023 47.786 123.336 143.79 222.945 312.29 222.945 170.5 0 265.802-101.611 314.271-223.673 0.159-0.409 0.318-0.751 0.478-1.138 0.25-0.637 0.569-1.274 0.819-1.911l0.387 0.137c4.915-9.012 14.131-15.383 25.122-15.383 15.997 0 23.945 12.971 23.945 28.968 0.023 2.276-0.773 4.255-1.252 6.349zM285.822 573.156c0 124.898 101.256 226.178 226.178 226.178s226.179-101.28 226.179-226.178c0-124.945-101.257-226.178-226.179-226.178s-226.178 101.232-226.178 226.178z" />
<glyph unicode="&#xe906;" glyph-name="更多" d="M279.063-59.387c-13.838 0-23.063 4.613-32.288 13.838-18.45 18.45-18.45 46.126 0 64.577l428.973 428.973-428.973 424.36c-18.45 18.45-18.45 46.126 0 64.577s46.126 18.45 64.577 0l461.261-461.261c18.45-18.45 18.45-46.126 0-64.577l-461.261-461.261c-4.613-4.613-18.45-9.225-32.288-9.225z" />
<glyph unicode="&#xe907;" glyph-name="公告" d="M642.744-53.924c-7.588 0-15.063 2.775-20.941 8.1l-304.732 274.227h-176.23c-50.452 0-125.481 33.423-125.481 125.481v188.211c0 50.452 33.444 125.481 125.471 125.481h176.169l304.732 274.289c9.206 8.346 22.456 10.353 33.741 5.325 11.418-5.079 18.637-16.302 18.637-28.672v-941.066c0-12.37-7.219-23.654-18.565-28.682-4.086-1.812-8.479-2.693-12.8-2.693v0zM140.831 604.826c-59.73 0-62.73-52.255-62.73-62.74v-188.211c0-59.658 52.265-62.74 62.73-62.74h188.211c7.782 0 15.247-2.877 20.951-8.1l261.376-235.131v800.174l-261.294-235.151c-5.775-5.202-13.23-8.1-21.023-8.1h-188.221zM799.58 636.201c-7.956 0-16.046 3.082-22.2 9.165-12.237 12.227-12.237 32.123 0 44.36l125.481 125.481c12.227 12.216 32.102 12.216 44.36 0 12.227-12.237 12.227-32.133 0-44.37l-125.471-125.471c-6.103-6.083-14.060-9.165-22.17-9.165v0zM987.802 416.625h-188.221c-17.244 0-31.365 14.039-31.365 31.365 0 17.316 14.121 31.365 31.365 31.365h188.221c17.377 0 31.365-14.060 31.365-31.365 0-17.326-13.988-31.365-31.365-31.365v0zM925.061 71.557c-7.967 0-16.046 3.072-22.2 9.165l-125.481 125.481c-12.237 12.227-12.237 32.102 0 44.36 12.227 12.216 32.102 12.216 44.37 0l125.471-125.471c12.227-12.257 12.227-32.143 0-44.37-6.093-6.093-14.049-9.165-22.159-9.165v0z" />
<glyph unicode="&#xe908;" glyph-name="活动" horiz-adv-x="1025" d="M585.075-40.282c-2.291 0-4.685 0.102-6.976 0.486-21.798 3.072-38.566 19.699-41.638 41.536l-55.014 392.090-455.078 63.77c-13.555 1.958-24.179 12.582-26.086 26.086-1.856 13.555 5.414 26.726 17.946 32.23l937.075 416.128c18.522 8.243 39.936 4.288 54.31-10.138 14.438-14.387 18.394-35.738 10.099-54.362l-165.581-373.082c-6.886-15.398-25.075-22.374-40.422-15.552-15.462 6.874-22.426 24.96-15.565 40.422l152.576 343.565-809.766-359.514 358.285-50.278c21.517-3.072 38.579-20.224 41.651-41.638l50.214-358.336 118.054 265.984c6.886 15.45 25.024 22.528 40.474 15.552 15.462-6.874 22.426-24.96 15.565-40.371l-135.654-305.677c-7.987-17.894-25.306-28.902-44.467-28.902v0z" />
<glyph unicode="&#xe909;" glyph-name="积分" d="M511.176 171.724v116.144h-167.963v49.674h167.963v51.103h-167.963v52.893h138.012l-164.318 254.087h80.946l117.37-184.401c13.217-20.967 23.474-39.31 30.76-55.034 6.204 12.626 17.264 32.041 33.188 58.251l110.897 181.186h86.612l-163.915-254.087h138.012v-52.893h-166.747v-51.103h166.747v-49.674h-166.747v-116.145h-72.852zM930.482 447.986c0.073-50.473-8.849-101.039-26.599-148.698-17.713-47.665-44.16-92.451-78.205-131.564-34.012-39.111-75.691-72.57-123.146-97.328-11.869-6.156-24.053-11.864-36.567-16.92-12.51-5.063-25.331-9.516-38.399-13.322-13.066-3.812-26.367-7.055-39.855-9.587-6.743-1.273-13.531-2.378-20.355-3.317-3.412-0.469-6.832-0.896-10.26-1.281l-5.147-0.546-2.579-0.25-1.935-0.176c-0.271-0.019-0.306-0.039-0.771-0.058l-2.344-0.218-2.689-0.201-5.192-0.356c-3.458-0.216-6.923-0.39-10.393-0.521-6.942-0.261-13.908-0.35-20.889-0.263-13.959 0.188-27.99 1.010-41.981 2.675-13.994 1.639-27.966 3.993-41.837 7.062-6.936 1.534-13.846 3.247-20.722 5.137-6.874 1.897-13.696 4.012-20.481 6.279-54.288 18.137-105.367 48.092-148.47 87.574-43.158 39.41-78.329 88.33-102.090 142.682-2.974 6.79-5.802 13.65-8.428 20.591-2.595 6.952-5.020 13.971-7.275 21.047s-4.336 14.211-6.244 21.392c-1.903 7.185-3.546 14.435-5.058 21.711-2.976 14.56-5.371 29.254-6.786 44.041-0.735 7.389-1.291 14.793-1.671 22.201-0.19 3.704-0.337 7.41-0.438 11.115l-0.121 5.558-0.021 2.778 0.002 3.009 0.054 5.301 0.121 5.583c0.102 3.705 0.248 7.41 0.438 11.114 0.381 7.408 0.937 14.811 1.671 22.2 1.524 14.773 3.859 29.47 6.848 44.025 0.753 3.638 1.539 7.27 2.389 10.886 0.866 3.613 1.775 7.215 2.728 10.806 1.906 7.181 3.987 14.312 6.239 21.386 4.46 14.164 9.803 28.032 15.748 41.604 23.813 54.3 59.008 103.153 102.157 142.505 43.096 39.423 94.135 69.33 148.372 87.446 27.108 9.088 55.009 15.162 82.957 18.472 13.982 1.636 27.995 2.487 41.941 2.675 6.974 0.089 13.933 0.004 20.869-0.254 3.468-0.128 6.929-0.3 10.383-0.514l5.177-0.353 5.288-0.416 5.019-0.48 5.154-0.543c3.425-0.384 6.843-0.808 10.251-1.276 6.817-0.934 13.6-2.035 20.338-3.304 13.479-2.519 26.766-5.772 39.828-9.547 13.058-3.797 25.872-8.24 38.375-13.294 12.502-5.060 24.691-10.727 36.555-16.876 47.441-24.705 89.128-58.112 123.155-97.184 34.062-39.076 60.534-83.838 78.263-131.492 17.767-47.651 26.701-98.2 26.626-148.699v-0.012zM922.295 447.999c-0.058 49.468-9.7 98.889-28.481 144.606-18.719 45.735-46.477 87.721-81.178 122.85-34.675 35.163-76.429 63.226-121.915 82.149-22.745 9.463-46.427 16.63-70.577 21.358-24.157 4.734-48.741 7.024-73.371 6.898-24.553-0.127-49.142-2.669-73.184-7.641-24.050-4.966-47.584-12.356-70.136-22.011-22.556-9.652-44.129-21.564-64.319-35.47-20.209-13.885-38.957-29.837-56.118-47.315-34.297-34.999-61.648-76.748-80.012-122.136-18.426-45.384-27.768-94.311-27.629-143.314-0.017-24.424 2.228-48.94 6.862-72.958 4.619-24.031 11.585-47.613 20.779-70.299 18.363-45.387 45.712-87.133 80.007-122.133 17.159-17.481 35.929-33.405 56.126-47.301 20.187-13.906 41.759-25.817 64.312-35.47 22.552-9.656 46.084-17.046 70.131-22.013 24.057-4.972 48.589-7.517 73.219-7.644 24.551-0.127 49.189 2.162 73.329 6.895 24.149 4.727 47.829 11.894 70.574 21.354 45.486 18.919 87.234 46.986 121.919 82.139 34.701 35.128 62.46 77.113 81.18 122.847 18.782 45.723 28.423 95.126 28.483 144.619v-0.011z" />
<glyph unicode="&#xe90a;" glyph-name="评论" d="M209.818 515.789c0-39.588 32.092-71.68 71.68-71.68s71.68 32.092 71.68 71.68c0 39.588-32.092 71.68-71.68 71.68s-71.68-32.092-71.68-71.68zM440.32 515.789c0-39.588 32.092-71.68 71.68-71.68s71.68 32.092 71.68 71.68c0 39.588-32.092 71.68-71.68 71.68s-71.68-32.092-71.68-71.68zM670.72 515.789c0-39.588 32.092-71.68 71.68-71.68s71.68 32.092 71.68 71.68c0 39.588-32.092 71.68-71.68 71.68s-71.68-32.092-71.68-71.68zM512 899.789c-271.462 0-491.52-171.93-491.52-384 0-116.736 66.662-221.184 171.725-291.635l37.683-202.752c0.41-2.253 1.126-4.403 1.946-6.451 0 0 0 0 0-0.102 0.205-0.41 0.41-0.819 0.614-1.331 0-0.102 0.102-0.102 0.102-0.205 0.205-0.41 0.41-0.819 0.614-1.126 0-0.102 0.102-0.205 0.205-0.307 0.205-0.307 0.41-0.717 0.614-1.024 0.102-0.102 0.205-0.307 0.205-0.41 0.205-0.307 0.41-0.614 0.512-0.819 0.102-0.102 0.102-0.205 0.205-0.205v0c0.102-0.102 0.102-0.205 0.205-0.307 0.102-0.205 0.307-0.307 0.41-0.512 0.205-0.307 0.41-0.614 0.717-0.922 0 0 0.102-0.102 0.102-0.102 3.174-3.891 7.168-6.861 11.571-8.806 0.102 0 0.205-0.102 0.307-0.102 0.307-0.102 0.614-0.205 0.922-0.41 4.403-1.741 9.318-2.458 14.234-1.843 0.102 0 0.205 0 0.307 0 0.307 0 0.614 0.102 0.922 0.102s0.512 0.102 0.819 0.102c0.102 0 0.205 0 0.307 0s0.102 0 0.205 0c0.41 0.102 0.819 0.205 1.229 0.307 0 0 0.102 0 0.102 0 3.584 0.819 7.168 2.355 10.342 4.608l189.747 131.686c14.643-1.024 29.594-1.536 44.544-1.536 271.462 0 491.52 171.93 491.52 384 0.102 212.173-219.955 384.102-491.418 384.102zM821.658 292.659c-39.526-30.925-85.914-55.296-137.728-72.397-54.374-17.92-112.23-27.034-172.032-27.034-16.691 0-33.28 0.717-49.664 2.15 0 0 0 0 0 0-7.168 0.819-14.643-0.819-20.992-5.222l-159.642-110.797-31.437 169.062c-1.638 9.011-7.168 16.282-14.438 20.685 0 0 0 0 0 0-11.674 7.373-22.835 15.258-33.587 23.552-38.4 30.003-68.403 64.614-89.088 102.912s-31.232 78.746-31.232 120.218 10.547 81.92 31.232 120.218c20.685 38.298 50.688 72.909 89.088 102.912 39.526 30.925 85.914 55.296 137.728 72.397 54.374 17.92 112.23 27.034 172.032 27.034s117.658-9.114 172.032-27.034c51.814-17.101 98.099-41.472 137.728-72.397 38.4-30.003 68.403-64.614 89.088-102.912s31.232-78.746 31.232-120.218-10.547-81.92-31.232-120.218c-20.582-38.195-50.586-72.909-89.088-102.912z" />
<glyph unicode="&#xe90b;" glyph-name="社区" horiz-adv-x="1061" d="M712.806 539.631h-54.831c0-70.663-57.276-127.94-127.935-127.94s-127.946 57.276-127.946 127.94h-54.836c0-100.943 81.841-182.771 182.782-182.771s182.766 81.827 182.766 182.771zM1060.075 349.335c0 92.762-51.846 173.454-128.274 215.088-3.521 219.033-181.894 395.576-401.762 395.576-219.892 0-398.292-176.577-401.774-395.646-76.428-41.652-128.265-122.304-128.265-215.019 0-113.224 77.377-208.256 182.385-236.417l-54.932-176.435h55.317l18.281 54.831 49.456 164.873c-1.285-0.024-2.476-0.379-3.768-0.379-105.988 0-191.905 85.921-191.905 191.914 0 62.966 30.742 118.346 77.581 153.338 20.784-146.46 120.307-267.263 254.416-318.459l-59.166-191.286h0.027l-16.985-54.831h54.831l18.284 54.831 78.613 226.016c-159.412 31.472-279.665 171.934-279.665 340.573 0 191.793 155.48 347.264 347.269 347.264s347.258-155.471 347.258-347.264c0-168.639-120.242-309.102-279.654-340.573l78.613-226.016 18.271-54.831h54.833l-17.133 54.83h0.169l-59.186 191.298c134.144 51.201 233.697 172.026 254.454 318.53 46.861-34.988 77.619-90.408 77.619-153.421 0-105.992-85.841-191.914-191.745-191.914-1.301 0-2.503 0.357-3.797 0.384l49.421-164.877h-0.14l18.274-54.831h55.389l-54.882 176.426c104.938 28.15 182.272 123.192 182.272 236.427z" />
<glyph unicode="&#xe90c;" glyph-name="社区论坛" d="M802.090 715.958v68.655h-672.796v-469.248h114.294l-0.994-150.67 0.838 0.613-0.004-0.613 112.102 82.015h2.397l-0.995-150.671 205.941 150.671h352.72v469.248h-113.504zM171.060 356.296v387.384h589.263v-387.384h-325.162l-150.26-109.934 0.272 41.279h-0.608v34.331l0.226 34.324h-113.731zM874.663 287.642h-325.163l-151.098-110.546 0.673 102.082 49.46 36.186h352.72v359.661h73.407v-387.384z" />
<glyph unicode="&#xe90d;" glyph-name="收藏" horiz-adv-x="1025" d="M755.264 813.088c54.688 0 106.080-21.312 144.768-59.968 79.808-79.808 79.808-209.696 0-289.536l-380-379.968c-0.192-0.192-0.64-0.64-2.336-0.64-0.032 0-0.064 0-0.096 0l-5.728 0.416-5.248-0.448c-1.408 0-1.888 0.48-2.080 0.672l-380.48 380c-38.72 38.656-60.064 90.048-60.064 144.736s21.344 106.080 60.032 144.736c38.72 38.688 90.24 60 145.024 60s106.272-21.312 144.992-60l98.24-98.048 50.752 50.592 47.424 47.488c38.72 38.656 90.112 59.968 144.8 59.968zM755.264 877.088c-68.736 0-137.536-26.24-190.016-78.72l-52.928-52.96-5.472 5.472h-0.032l-47.52 47.488c-52.544 52.48-121.376 78.72-190.208 78.72-68.864 0-137.728-26.24-190.24-78.72-105.088-104.928-105.088-275.104 0-380.032l380.48-380c13.088-13.056 30.176-19.392 47.328-19.392 1.92 0 3.808 0.096 5.728 0.256 1.888-0.16 3.808-0.256 5.696-0.256 17.088 0 34.176 6.336 47.232 19.392l380 379.968c104.928 104.992 104.928 275.104 0 380.032-52.512 52.512-121.28 78.752-190.048 78.752v0z" />
<glyph unicode="&#xe90e;" glyph-name="书" d="M244.882 959.953c-89.039 1.291-244.858-23.551-244.858-111.299v-823.614c0-49.172 39.867-89.039 89.039-89.039 0 0 82.539 44.52 168.173 44.52 92.2 0 187.984-44.52 187.984-44.52 49.172 0 89.039 39.867 89.039 89.039v801.354c-27.513 94.649-169.776 131.801-289.378 133.559zM489.74 25.039c0-24.575-19.945-44.52-44.52-44.52 0 0-102.039 44.52-186.092 44.52-93.536 0-170.065-44.52-170.065-44.52-24.575 0-44.52 19.945-44.52 44.52v823.614c0 27.402 51.932 69.050 200.339 66.78 86.146-1.313 189.832-27.313 244.858-89.039v-801.354zM779.118 959.953c-119.602-1.759-261.865-38.91-289.378-133.559v-801.354c0-49.172 39.867-89.039 89.039-89.039 0 0 95.784 44.52 187.984 44.52 85.634 0 168.173-44.52 168.173-44.52 49.172 0 89.039 39.867 89.039 89.039v823.614c0 87.748-155.819 112.59-244.858 111.299zM979.457 25.039c0-24.575-19.945-44.52-44.52-44.52 0 0-76.529 44.52-170.065 44.52-84.053 0-186.092-44.52-186.092-44.52-24.575 0-44.52 19.945-44.52 44.52v801.354c55.026 61.727 158.713 87.726 244.858 89.039 148.406 2.271 200.339-39.378 200.339-66.78v-823.614z" />
<glyph unicode="&#xe90f;" glyph-name="投票" horiz-adv-x="1033" d="M228.804 147.72h-133.883v342.49h133.883v-342.49zM460.358 147.72h-133.883v693.16h133.883v-693.16zM691.97 147.72h-133.883v482.512h133.882v-482.512h0.001zM789.679 321.622h133.883v-173.902h-133.883v173.902zM1.862 55.388h1015.077v-60.856h-1015.077v60.856z" />
<glyph unicode="&#xe910;" glyph-name="问号" d="M512-64c-282.784 0-512 229.216-512 512s229.216 512 512 512 512-229.216 512-512-229.216-512-512-512zM512 896c-247.424 0-448-200.576-448-448s200.576-448 448-448 448 200.576 448 448-200.576 448-448 448zM544 322.56v-130.56h-64v192h32c88.352 0 160 71.648 160 160s-71.648 160-160 160-160-71.648-160-160h-64c0 123.712 100.288 224 224 224s224-100.288 224-224c0-112.8-83.488-205.888-192-221.44zM544 96h-64v64h64v-64z" />
<glyph unicode="&#xe911;" glyph-name="无线" d="M512 228.571c-39.501 0-71.501-32.75-71.501-73.143s32-73.143 71.501-73.143 71.501 32.75 71.501 73.143-32 73.143-71.501 73.143zM252.751 310.894l50.536-51.679c56.249 49.178 129.070 79.071 208.713 79.071s152.499-29.893 208.75-79.108l50.536 51.679c-69.321 62.393-159.892 100.571-259.286 100.571-99.357 0-189.965-38.179-259.249-100.535zM126.358 440.143l50.536-51.714c88.856 82.178 206.177 132.714 335.106 132.714s246.25-50.536 335.108-132.714l50.536 51.679c-101.859 95.393-237.001 154.178-385.644 154.178s-283.785-58.785-385.642-154.143zM512 777.143c-197.928 0-377.713-79.322-512-207.786l50.571-51.679c121.285 115.215 283.215 186.322 461.429 186.322s340.144-71.108 461.464-186.357l50.536 51.714c-134.287 128.464-314.072 207.786-512 207.786z" />
<glyph unicode="&#xe912;" glyph-name="语音-(1)" d="M824.579 633.401c-15.449 0-27.951-12.502-27.951-27.95 0-1.693-0.027-140.842-0.054-144.717-2.457-149.795-127.828-271.639-279.457-271.639-152.257 0-277.628 122.39-279.484 272.757-0.028 4.067-0.028 142.343-0.028 143.599 0 15.449-12.501 27.95-27.951 27.95s-27.951-12.502-27.951-27.95c0-1.283 0-143.217 0.027-144.226 2.123-171.575 137.607-312.774 307.458-326.855-0.009-0.301-0.023-0.6-0.023-0.903v-75.744h-127.064c-15.449 0-27.951-12.501-27.951-27.95 0-15.448 12.502-27.95 27.951-27.95h310.028c15.448 0 27.951 12.503 27.951 27.95 0 15.45-12.503 27.95-27.951 27.95h-127.063v75.744c0 0.304-0.013 0.605-0.023 0.907 169.171 14.073 304.609 154.644 307.43 325.431 0.027 1.72 0.054 143.926 0.054 145.646 0 15.449-12.501 27.95-27.951 27.95zM517.116 272.399c106.345 0 192.873 85.761 192.873 191.146v241.532c0 105.385-86.528 191.146-192.873 191.146s-192.873-85.761-192.873-191.146v-241.532c0.001-105.386 86.528-191.146 192.873-191.146zM380.145 705.077c0 74.569 61.443 135.246 136.971 135.246s136.971-60.677 136.971-135.246v-241.532c0-74.57-61.443-135.246-136.971-135.246s-136.971 60.676-136.971 135.246v241.532z" />
<glyph unicode="&#xe913;" glyph-name="语音-(2)" d="M264 651.648c-19.408 15.664-49.408 14.352-67.008-2.96-17.584-17.296-16.096-44.032 3.312-59.744 44.448-35.92 69.952-87.328 69.952-141.040 0-53.648-25.568-105.088-70.192-141.136-10.336-8.352-15.568-19.824-15.568-31.344 0-10.128 4.048-20.304 12.304-28.4 17.6-17.296 47.6-18.608 67.008-2.912 64.384 52.064 101.312 126.336 101.312 203.792 0 77.552-36.848 151.808-101.12 203.744zM443.84 791.008c-18.48 16.56-48.512 16.64-67.088 0.16-18.576-16.432-18.624-43.248-0.192-59.808 84.384-75.664 130.88-176.304 130.88-283.456 0-106.96-46.56-207.584-131.104-283.376-9.2-8.24-13.808-19.040-13.808-29.808 0-10.864 4.656-21.728 13.984-29.984 18.576-16.48 48.592-16.4 67.088 0.16 102.352 91.728 158.72 213.552 158.72 343.008 0 129.648-56.304 251.504-158.48 343.104zM622.112 930.992c-18.128 16.848-48.16 17.408-67.072 1.232-18.928-16.176-19.52-42.944-1.392-59.792 123.152-114.464 190.976-265.232 190.976-424.512 0-158.976-67.92-309.68-191.216-424.368-8.8-8.192-13.184-18.72-13.184-29.264 0-11.104 4.88-22.224 14.608-30.544 18.896-16.144 48.944-15.584 67.072 1.28 140.304 130.512 217.568 302 217.568 482.88 0.032 181.232-77.184 352.784-217.36 483.088z" />
</font>
</defs>
</svg>
